<svg xmlns="http://www.w3.org/2000/svg" width="300" height="300" viewBox="0 0 105.368 66.652">
  <path 
  fill="#111"
  style="line-height:normal;font-variant-ligatures:normal;font-variant-position:normal;font-variant-caps:normal;font-variant-numeric:normal;font-variant-alternates:normal;font-feature-settings:normal;text-indent:0;text-align:start;text-decoration-line:none;text-decoration-style:solid;text-decoration-color:#000;text-transform:none;text-orientation:mixed;shape-padding:0;isolation:auto;mix-blend-mode:normal" d="M25.749.001c-3.19-.019-6.263.218-8.805.899C8.153 3.255 5.292 10.882 4.692 12.845a3.67 3.67 0 0 0-.402.347c-1.284 1.284-1.182 3.039-.805 4.2.248.76.448.974.668 1.314-.294.434-1.31 1.862-2.412 4.47C.487 26.144-.605 30.026.384 33.717c.897 3.349 2.058 6.64 3.472 9.28 1.414 2.638 3.052 4.735 5.3 5.337.512.137.95.222 1.476.1.525-.123 1.076-.683 1.195-1.18.237-.994-.132-1.59-.41-2.361-.286-.792-.596-1.67-.79-2.494.917.587 2.175 1.196 3.856 1.646 1.41.378 2.955.743 4.532.973.61.673 2.25 2.5 3.529 4.13.094.121.151.213.24.329a3.33 3.33 0 0 0-.723.023l-.386-.092-.26.261c-.81.316-1.457.897-2.03 1.593-.354.431-.683.918-.994 1.439l-.083.084-.046.136c-.664 1.155-1.235 2.477-1.743 3.833-1.55 4.134-2.454 8.564-2.454 8.564l-.273 1.335 1.39-.001h-.001.396l2.904-.002 1.784-.001h.009l63.079-.045h22.015l-.116-.201-.474-1.303s-1.725-4.748-4.99-10.403c-1.88-3.255-6.125-5.566-9.893-7.267-3.494-1.578-6.167-2.363-6.603-2.494-.166-.405-2.439-5.968-5.582-12.643-3.256-6.913-7.1-14.474-10.328-17.703-3.098-3.098-8.316-6.07-12.807-8.353A128.667 128.667 0 0 0 46.323 2.4l-.096-.04-.1-.021S41.297 1.326 35.265.638C32.248.293 28.94.02 25.75 0z" color="#ee1221" font-weight="400" font-family="sans-serif" white-space="normal" overflow="visible"/>
</svg>
