<?xml version="1.0" encoding="UTF-8" standalone="no"?>
<!-- Created with Inkscape (http://www.inkscape.org/) -->

<svg
   xmlns:dc="http://purl.org/dc/elements/1.1/"
   xmlns:cc="http://creativecommons.org/ns#"
   xmlns:rdf="http://www.w3.org/1999/02/22-rdf-syntax-ns#"
   xmlns:svg="http://www.w3.org/2000/svg"
   xmlns="http://www.w3.org/2000/svg"
   xmlns:sodipodi="http://sodipodi.sourceforge.net/DTD/sodipodi-0.dtd"
   xmlns:inkscape="http://www.inkscape.org/namespaces/inkscape"
   width="128.24257"
   height="81.122192"
   viewBox="0 0 33.930846 21.463581"
   version="1.1"
   id="svg8"
   inkscape:version="0.92.4 (5da689c313, 2019-01-14)"
   sodipodi:docname="parrot.svg">
  <defs
     id="defs2" />
  <sodipodi:namedview
     id="base"
     pagecolor="#ffffff"
     bordercolor="#666666"
     borderopacity="1.0"
     inkscape:pageopacity="0.0"
     inkscape:pageshadow="2"
     inkscape:zoom="1"
     inkscape:cx="51.549854"
     inkscape:cy="-14.438915"
     inkscape:document-units="mm"
     inkscape:current-layer="layer1"
     showgrid="false"
     units="px"
     showborder="false"
     fit-margin-top="0"
     fit-margin-left="0"
     fit-margin-right="0"
     fit-margin-bottom="0"
     inkscape:window-width="1366"
     inkscape:window-height="705"
     inkscape:window-x="-8"
     inkscape:window-y="-8"
     inkscape:window-maximized="1" />
  <metadata
     id="metadata5">
    <rdf:RDF>
      <cc:Work
         rdf:about="">
        <dc:format>image/svg+xml</dc:format>
        <dc:type
           rdf:resource="http://purl.org/dc/dcmitype/StillImage" />
        <dc:title></dc:title>
      </cc:Work>
    </rdf:RDF>
  </metadata>
  <g
     inkscape:label="Layer 1"
     inkscape:groupmode="layer"
     id="layer1"
     transform="translate(38.585661,-123.54945)">
    <g
       id="layer1-9"
       inkscape:label="Layer 1"
       transform="matrix(0.60938143,0,0,0.60938143,-47.991521,35.853316)">
      <path
         inkscape:connector-curvature="0"
         id="path830"
         d="m 18.416611,151.07773 c 0,0 1.091807,-4.77636 6.125,-6.12501 5.033195,-1.34863 15.149029,0.76792 15.149029,0.76792 0,0 7.871401,3.24883 10.9371,6.31454 3.0657,3.0657 8.384095,16.08048 8.384095,16.08048 0,0 6.947954,2.04955 8.646967,4.99233 1.699012,2.94277 2.594051,5.40352 2.594051,5.40352 l -46.80958,0.0332 c 0,0 1.896298,-9.2472 4.478229,-7.75652 2.58193,1.49067 -2.15982,-3.65498 -2.15982,-3.65498"
         style="opacity:1;fill:#d40000;stroke:#000000;stroke-width:1.17355597;stroke-linecap:butt;stroke-linejoin:miter;stroke-miterlimit:4;stroke-dasharray:none;stroke-opacity:1" />
      <path
         inkscape:connector-curvature="0"
         id="path826"
         d="m 18.285691,153.80848 c 0,0 -3.013352,4.28714 -2.081045,7.76656 0.932308,3.47941 2.424164,6.82828 4.220145,7.30951 1.795981,0.48123 -0.483661,-2.01528 0,-3.82033 0.483661,-1.80505 0.393849,-2.22929 1.841419,-1.84141 1.447569,0.38787 -1.21665,0.12801 1.487104,-2.57575 2.703753,-2.70375 3.611593,-1.90137 2.354675,-4.07841 -1.256918,-2.17704 1.623026,-3.21711 -1.316817,-4.91442 -2.939842,-1.69732 -5.116841,-0.83694 -5.341094,0 -0.224253,0.83692 -0.355778,-1.33452 -1.33309,-0.3572 -0.977311,0.9773 0.168703,2.51145 0.168703,2.51145 z"
         style="opacity:1;fill:#333333;stroke:#000000;stroke-width:1.17355597;stroke-linecap:butt;stroke-linejoin:miter;stroke-miterlimit:4;stroke-dasharray:none;stroke-opacity:1" />
      <path
         inkscape:connector-curvature="0"
         id="path828"
         d="m 27.389683,158.69336 c -0.172306,0.007 -0.399063,0.13555 -0.704388,0.44087 -1.221297,1.22131 -2.369008,3.35433 -2.369008,3.35433 0,0 0.06021,0.0708 -0.905936,0.32962 -0.966143,0.25887 -0.681076,0.54652 -0.681076,0.54652 l -2.288152,1.63776 c 0,0 0.677042,1.0475 2.79955,1.61623 2.122507,0.56872 4.781422,1.01165 6.533659,0 1.752236,-1.01166 -1.42279,-5.30974 -1.662261,-6.20345 -0.179603,-0.67029 -0.205468,-1.7428 -0.722388,-1.72188 z m -2.369008,0.9989 -1.646621,2.58206 0.06905,0.12837 z m -1.646621,2.58206 -0.0012,-0.003 -0.09325,0.1505 z m -0.0012,-0.003 1.551306,-2.50386 -1.856432,1.93699 z"
         style="opacity:1;fill:#333333;stroke:#000000;stroke-width:1.17355597;stroke-linecap:butt;stroke-linejoin:miter;stroke-miterlimit:4;stroke-dasharray:none;stroke-opacity:1" />
      <ellipse
         ry="3.9589179"
         rx="4.9647489"
         cy="150.73466"
         cx="33.457462"
         id="path846"
         style="opacity:1;vector-effect:none;fill:#ffff00;fill-opacity:1;stroke:none;stroke-width:0.87819177;stroke-linecap:round;stroke-linejoin:round;stroke-miterlimit:4;stroke-dasharray:none;stroke-dashoffset:147.62835693;stroke-opacity:1;paint-order:markers stroke fill" />
      <circle
         r="1.9760314"
         cy="150.55095"
         cx="33.21365"
         id="path832"
         style="opacity:1;vector-effect:none;fill:#ff0000;fill-opacity:1;stroke:none;stroke-width:1.17355597;stroke-linecap:round;stroke-linejoin:round;stroke-miterlimit:4;stroke-dasharray:none;stroke-dashoffset:147.62835693;stroke-opacity:1;paint-order:markers stroke fill" />
      <circle
         style="opacity:1;vector-effect:none;fill:#000000;fill-opacity:1;stroke:none;stroke-width:1.17355597;stroke-linecap:round;stroke-linejoin:round;stroke-miterlimit:4;stroke-dasharray:none;stroke-dashoffset:147.62835693;stroke-opacity:1;paint-order:markers stroke fill"
         id="circle834"
         cx="33.21365"
         cy="150.55095"
         r="1.3173542" />
      <path
         inkscape:connector-curvature="0"
         id="path842"
         d="m 64.07842,170.18288 c 0,0 -5.95094,-2.84508 -6.713277,0 -0.762338,2.84508 2.233674,8.33619 2.233674,8.33619 h 10.500749 l -4.140684,-7.17187 z"
         style="fill:none;stroke:#000000;stroke-width:1.17355597;stroke-linecap:butt;stroke-linejoin:miter;stroke-miterlimit:4;stroke-dasharray:none;stroke-opacity:1" />
      <path
         inkscape:connector-curvature="0"
         id="path844"
         d="m 28.183718,170.92935 c 0,0 0.660058,7.61345 -2.040019,7.61345 -2.700077,0 -2.700471,0.002 -2.700471,0.002 l 2.178485,-6.42335 1.451416,-1.45584 z"
         style="fill:none;stroke:#000000;stroke-width:1.17357767;stroke-linecap:butt;stroke-linejoin:miter;stroke-miterlimit:4;stroke-dasharray:none;stroke-opacity:1" />
      <path
         inkscape:connector-curvature="0"
         id="path858"
         d="m 33.608506,162.37691 h 2.177459 l 0.972514,-1.68444 3.078473,0.82487 0.857137,-3.19888 2.690764,1.55353 1.750286,-3.03159"
         style="fill:#0000ff;stroke:none;stroke-width:0.1469076;stroke-linecap:butt;stroke-linejoin:miter;stroke-miterlimit:4;stroke-dasharray:none;stroke-opacity:1" />
      <path
         inkscape:connector-curvature="0"
         id="path860"
         d="m 33.083228,165.88272 3.219116,1.85855 c 0,0 0.734783,-1.88351 1.087449,-1.88351 0.352666,0 1.917532,1.91754 1.917532,1.91754 l 1.874773,-1.87478 1.474132,1.47413 1.477359,-2.55887 1.514685,2.62353 2.897275,-2.89728 1.911292,1.91128 1.596976,-1.59697 2.28422,-0.61205"
         style="fill:#0000ff;stroke:none;stroke-width:0.23214668;stroke-linecap:butt;stroke-linejoin:miter;stroke-miterlimit:4;stroke-dasharray:none;stroke-opacity:1" />
      <path
         inkscape:connector-curvature="0"
         id="path862"
         d="m 32.748232,171.3657 4.016058,2.31866 2.723603,-2.72359 2.529258,2.52925 2.185864,-2.18587 1.972609,1.97261 2.079237,-2.07923 1.959725,1.13145 h 2.552624"
         style="fill:#ff0000;stroke:none;stroke-width:0.20150088;stroke-linecap:butt;stroke-linejoin:miter;stroke-miterlimit:4;stroke-dasharray:none;stroke-opacity:1" />
      <path
         inkscape:connector-curvature="0"
         id="path864"
         d="m 58.072745,173.13177 1.848763,0.81301 -0.621006,-2.48403 1.242015,1.24201 0.465754,-2.17352 1.707768,1.70777 1.397265,-0.77626 1.397265,2.94979 1.242016,-0.46576"
         style="fill:#ff0000;stroke:none;stroke-width:0.07762584px;stroke-linecap:butt;stroke-linejoin:miter;stroke-opacity:1" />
      <path
         inkscape:transform-center-y="0.46575244"
         inkscape:transform-center-x="-0.1552516"
         style="fill:#ff0000;stroke:none;stroke-width:0.13479209;stroke-linecap:butt;stroke-linejoin:miter;stroke-miterlimit:4;stroke-dasharray:none;stroke-opacity:1"
         d="m 22.285901,148.0475 2.631564,2.13757 -0.896471,-3.66201 2.324468,2.61814 -0.719476,-2.93899 1.81289,2.04194 -0.684381,-2.79564 1.284131,1.04309 0.752875,-0.3949"
         id="path866"
         inkscape:connector-curvature="0" />
      <path
         inkscape:connector-curvature="0"
         id="path868"
         d="m 27.473908,173.47902 -1.242014,1.39727 0.621006,1.08676 -1.242012,0.93151 0.621006,0.93151"
         style="fill:#ffff00;stroke:none;stroke-width:0.07762584px;stroke-linecap:butt;stroke-linejoin:miter;stroke-opacity:1" />
      <circle
         r="1.7077686"
         cy="156.24609"
         cx="22.661108"
         id="path870"
         style="opacity:1;vector-effect:none;fill:#1a1a1a;fill-opacity:1;stroke:none;stroke-width:0.29338899;stroke-linecap:round;stroke-linejoin:round;stroke-miterlimit:4;stroke-dasharray:none;stroke-dashoffset:147.62835693;stroke-opacity:1;paint-order:markers stroke fill" />
      <circle
         r="0.69634753"
         cy="149.30893"
         cx="32.903145"
         id="circle876"
         style="opacity:1;vector-effect:none;fill:#ffffff;fill-opacity:1;stroke:none;stroke-width:0.62033635;stroke-linecap:round;stroke-linejoin:round;stroke-miterlimit:4;stroke-dasharray:none;stroke-dashoffset:147.62835693;stroke-opacity:1;paint-order:markers stroke fill" />
      <path
         inkscape:connector-curvature="0"
         id="path882"
         d="m 34.551381,149.09657 0.01949,0.0181"
         style="fill:none;stroke:#000000;stroke-width:0.07762584px;stroke-linecap:butt;stroke-linejoin:miter;stroke-opacity:1" />
    </g>
  </g>
</svg>
